<?xml version="1.0" standalone="no"?>
<!DOCTYPE svg PUBLIC "-//W3C//DTD SVG 20010904//EN"
 "http://www.w3.org/TR/2001/REC-SVG-20010904/DTD/svg10.dtd">
<svg version="1.0" xmlns="http://www.w3.org/2000/svg"
 width="200.000000pt" height="200.000000pt" viewBox="0 0 200.000000 200.000000"
 preserveAspectRatio="xMidYMid meet">
<metadata>
Created by potrace 1.11, written by Peter Selinger 2001-2013
</metadata>
<g transform="translate(0.000000,200.000000) scale(0.100000,-0.100000)"
fill="#000000" stroke="none">
<path d="M1791 1916 c-7 -8 -15 -30 -18 -49 -5 -34 -7 -35 -39 -30 -38 6 -47
-13 -18 -42 15 -15 15 -17 -1 -29 -26 -19 -9 -37 30 -34 19 1 32 5 29 10 -3 4
-19 5 -37 1 -32 -6 -32 -6 -14 15 18 20 18 21 0 48 -17 27 -17 27 2 22 11 -3
28 -9 38 -13 14 -6 17 -2 17 27 0 37 26 82 42 72 6 -4 8 -21 5 -39 -5 -33 -5
-33 25 -23 24 8 32 8 39 -3 13 -22 11 -30 -11 -36 -24 -6 -24 -4 -5 -39 17
-33 20 -64 5 -64 -5 0 -16 12 -23 27 l-14 27 -27 -42 c-30 -47 -43 -52 -49
-19 -4 18 -4 17 -6 -6 -1 -24 2 -28 22 -25 13 2 28 15 37 35 17 38 26 41 35
13 3 -11 15 -20 26 -20 24 0 26 45 4 77 -13 19 -13 21 5 26 41 11 18 73 -24
65 -23 -5 -26 -2 -26 22 0 16 -7 30 -16 34 -21 8 -20 8 -33 -8z"/>
<path d="M233 1905 c-15 -11 -23 -26 -23 -46 0 -31 -14 -39 -24 -14 -7 19 -40
19 -56 0 -16 -19 10 -62 47 -76 25 -9 25 -10 8 -29 -9 -10 -14 -24 -9 -31 4
-8 3 -10 -4 -5 -8 5 -12 -2 -12 -18 0 -30 29 -36 53 -11 13 13 16 11 21 -10 8
-30 45 -34 69 -7 20 21 24 77 5 66 -7 -4 -8 -3 -4 5 4 6 23 18 42 26 31 13 35
18 32 47 -3 31 -5 33 -43 33 l-40 0 0 40 c0 32 -4 41 -20 43 -11 1 -30 -5 -42
-13z m44 -1 c-3 -3 -12 -4 -19 -1 -8 3 -5 6 6 6 11 1 17 -2 13 -5z m12 -136
c-10 -19 -44 -24 -54 -8 -11 17 5 30 35 28 24 -2 27 -5 19 -20z"/>
<path d="M1808 1819 c-20 -11 -24 -44 -7 -55 8 -4 9 0 4 15 -4 15 -1 23 10 27
23 9 30 -3 14 -23 -12 -17 -12 -17 4 -2 11 9 15 22 11 32 -7 19 -12 20 -36 6z"/>
<path d="M1337 1813 c-4 -3 -58 -10 -121 -14 -63 -4 -149 -18 -192 -30 -44
-12 -103 -28 -132 -36 -29 -8 -50 -19 -47 -24 3 -5 -2 -6 -11 -2 -13 5 -15 3
-9 -7 5 -9 4 -11 -4 -6 -12 8 -35 -5 -154 -82 -69 -44 -104 -85 -192 -224 -41
-66 -66 -121 -68 -150 -1 -9 -4 -15 -8 -12 -9 5 -15 -23 -29 -124 -6 -41 -15
-83 -21 -94 -22 -40 11 -189 54 -248 10 -14 36 -53 57 -87 26 -41 56 -73 88
-95 27 -17 58 -47 68 -66 18 -33 34 -45 102 -76 95 -43 238 -64 264 -38 7 7
19 12 27 12 14 0 289 85 364 112 15 6 43 22 62 37 19 14 64 46 99 71 64 45 82
69 149 202 19 37 56 166 64 223 4 27 -12 167 -36 328 -5 31 -23 82 -40 112
-17 30 -31 61 -31 68 0 8 -13 31 -30 52 -16 21 -30 43 -30 49 0 6 -23 37 -51
68 -40 46 -61 61 -101 73 -56 16 -81 19 -91 8z m-41 -116 c-4 -12 -11 -53 -16
-92 -11 -84 -19 -112 -54 -188 -14 -32 -26 -60 -26 -62 0 -2 -13 -33 -29 -67
-15 -35 -31 -80 -35 -100 -4 -21 -11 -38 -16 -38 -13 0 -12 24 5 95 28 117 16
259 -31 372 -32 75 -28 91 21 91 20 0 39 2 41 5 3 3 37 5 76 6 68 0 70 0 64
-22z m170 -45 l52 -56 -22 -18 c-11 -9 -17 -17 -12 -18 5 0 -3 -9 -18 -21 -15
-11 -36 -40 -48 -62 -48 -96 -132 -206 -206 -274 l-79 -71 13 49 c12 44 52
147 75 191 5 10 9 25 9 33 0 8 4 15 8 15 13 0 42 104 51 183 5 40 14 83 20 96
11 20 18 21 59 16 41 -6 54 -14 98 -63z m-406 30 c0 -9 11 -40 24 -68 48 -103
57 -259 24 -404 -10 -43 -17 -55 -30 -52 -9 2 -28 -4 -42 -13 -13 -9 -51 -18
-83 -21 -32 -3 -80 -11 -108 -19 -163 -46 -166 -46 -235 -26 -36 10 -88 27
-115 38 -50 18 -51 19 -44 53 4 19 5 39 2 44 -4 5 -1 6 7 1 10 -6 12 -4 7 9
-4 10 -3 15 3 11 6 -3 10 -2 10 4 0 6 11 6 30 1 17 -5 76 -7 133 -5 56 2 125
-1 152 -6 147 -31 181 -42 204 -68 14 -16 21 -20 18 -9 -4 10 -2 20 3 23 6 4
10 1 10 -6 0 -7 2 -10 4 -8 8 8 -40 132 -91 234 -28 55 -58 126 -67 159 -10
32 -19 56 -21 54 -10 -9 36 -134 88 -240 87 -177 98 -233 30 -148 -41 51 -274
280 -285 280 -5 0 -8 -4 -8 -10 0 -5 5 -10 12 -10 16 0 171 -147 242 -230 37
-44 36 -61 -3 -41 -35 19 -153 34 -281 36 -141 1 -165 7 -149 36 5 11 7 25 3
31 -4 7 -3 8 4 4 7 -4 12 -1 12 6 0 7 20 44 45 81 33 49 69 85 128 129 77 57
250 148 283 148 8 0 13 3 11 8 -3 4 13 8 34 9 31 2 39 -1 39 -15z m531 -204
c10 -21 19 -44 19 -53 0 -8 6 -25 13 -36 10 -18 9 -23 -13 -41 -14 -12 -63
-39 -109 -61 -46 -22 -105 -52 -130 -68 -52 -34 -177 -76 -188 -65 -5 4 6 19
22 32 72 60 114 110 165 195 30 50 77 116 104 145 l49 54 24 -33 c14 -17 33
-49 44 -69z m53 -175 c3 -21 6 -59 6 -84 l0 -46 -62 -7 c-35 -4 -79 -11 -98
-16 -86 -22 -280 -51 -325 -48 l-50 3 35 16 c19 9 51 19 70 22 20 4 71 26 115
48 44 23 116 59 160 80 44 22 91 46 105 54 35 20 37 19 44 -22z m10 -174 c10
-52 7 -108 -9 -164 -18 -59 -10 -58 -120 -25 -33 10 -87 30 -120 45 -33 15
-100 40 -150 56 -119 38 -134 49 -70 49 28 0 111 12 185 26 289 55 276 54 284
13z m-1166 -23 c15 -7 64 -23 110 -35 79 -21 86 -22 130 -7 70 24 71 20 1 -26
-69 -44 -201 -102 -262 -113 -20 -4 -35 -11 -32 -15 10 -16 232 71 287 114 52
39 160 86 198 86 69 0 68 -12 -4 -91 -211 -235 -234 -263 -277 -349 l-30 -60
-37 19 c-28 14 -45 34 -66 75 -16 31 -32 56 -35 56 -4 0 -18 22 -31 50 -21 46
-23 57 -17 164 9 154 12 159 65 132z m550 -49 c8 2 7 -10 -3 -40 -17 -56 -58
-169 -85 -237 -30 -73 -70 -224 -70 -260 0 -40 -12 -44 -78 -24 -31 9 -62 17
-69 17 -7 0 -10 3 -8 7 2 3 -19 17 -46 30 -27 12 -52 27 -55 32 -9 14 26 98
65 158 20 30 66 86 102 125 36 38 72 80 81 93 9 13 42 50 73 83 57 59 58 60
70 37 6 -13 17 -22 23 -21z m177 -15 c33 -11 78 -25 100 -32 22 -7 67 -25 100
-40 51 -24 94 -38 194 -66 19 -6 6 -51 -27 -94 -15 -19 -27 -38 -27 -42 0 -3
-4 -10 -9 -15 -5 -4 -7 -3 -3 2 3 6 -26 -20 -65 -58 l-70 -68 -34 48 c-19 26
-55 79 -81 118 -25 38 -65 88 -87 111 -46 45 -111 158 -101 174 4 6 14 5 28
-4 12 -8 49 -23 82 -34z m-61 -91 c9 -8 16 -17 16 -22 0 -5 18 -25 39 -44 21
-20 58 -66 81 -103 24 -37 56 -86 71 -109 16 -23 29 -45 29 -50 0 -14 -65 -47
-146 -76 l-72 -26 -6 70 c-4 39 -14 101 -22 137 -33 148 -64 308 -63 327 0 12
11 -2 29 -36 15 -30 36 -61 44 -68z m-60 -36 c14 -66 32 -151 40 -188 8 -37
16 -100 18 -140 l3 -72 -55 -8 c-30 -4 -85 -14 -121 -22 -37 -8 -72 -15 -78
-15 -31 0 5 173 73 350 39 102 69 183 81 215 9 25 9 25 39 -120z m589 -60 c-3
-9 -8 -14 -10 -11 -3 3 -2 9 2 15 9 16 15 13 8 -4z"/>
<path d="M213 448 c-21 -34 -51 -108 -43 -108 4 0 16 20 25 45 17 44 40 73 51
63 7 -7 8 -108 1 -114 -3 -3 -20 -6 -39 -7 -28 -2 -34 -6 -36 -26 -1 -13 3
-29 8 -36 13 -15 -43 -79 -62 -73 -22 8 -21 39 3 64 16 18 20 27 12 32 -13 8
-33 55 -33 78 0 11 6 13 23 9 17 -6 19 -5 10 5 -17 18 -43 5 -43 -22 0 -13 7
-36 15 -52 14 -26 14 -31 -1 -47 -9 -10 -14 -30 -12 -46 4 -37 36 -42 70 -10
l26 24 11 -44 c6 -24 18 -46 27 -50 20 -8 54 25 54 53 0 21 3 22 26 14 39 -15
74 -12 74 5 0 24 -29 75 -42 75 -6 0 1 11 16 25 18 16 26 33 24 48 -3 19 -8
22 -42 20 -22 -2 -44 -7 -50 -13 -17 -17 -21 -11 -23 35 -1 24 -4 49 -8 55 -9
14 -32 13 -42 -2z m154 -95 c4 -11 -4 -25 -25 -43 -35 -29 -40 -40 -18 -40 15
0 46 -41 46 -61 0 -15 -69 -2 -90 17 -14 12 -15 10 -12 -20 5 -41 -23 -75 -44
-54 -7 7 -16 32 -20 56 -6 37 -4 42 12 42 15 1 13 4 -9 16 -35 19 -31 36 13
48 29 8 35 7 51 -13 14 -17 19 -19 19 -8 0 9 -4 19 -10 22 -17 11 -11 22 23
39 41 20 56 20 64 -1z"/>
<path d="M1640 394 c-6 -14 -10 -45 -10 -70 0 -35 -7 -53 -35 -90 -61 -80 -37
-128 32 -62 l33 32 0 -52 c0 -45 3 -52 20 -52 23 0 40 28 40 66 l0 28 28 -34
c43 -51 66 -25 37 43 -5 13 -2 17 12 17 11 0 28 6 39 14 25 19 9 37 -41 45
l-36 6 31 33 c38 41 39 62 3 62 -18 0 -38 -13 -65 -40 l-38 -41 0 49 c0 68
-31 97 -50 46z m93 -138 c-6 -29 -42 -41 -62 -21 -18 18 -12 25 31 35 18 4 34
8 34 9 1 1 -1 -10 -3 -23z"/>
</g>
</svg>
